<svg xmlns="http://www.w3.org/2000/svg" viewBox="0 0 660 270" role="img" aria-label="noncausal attention">
<defs><marker id="m" viewBox="0 0 10 10" refX="9" refY="5" markerWidth="6" markerHeight="6" orient="auto-start-reverse"><path d="M0,1 L9,5 L0,9 Z" fill="#D85A30"/></marker></defs>
<style>text{font-family: 'Pretendard', 'Apple SD Gothic Neo', 'Noto Sans KR', 'Segoe UI', system-ui, -apple-system, sans-serif;fill:#2C2C2A}</style>
<circle cx="70" cy="200" r="22" fill="#F1EFE8" stroke="#5F5E5A" stroke-width="1.5"/>
<circle cx="70" cy="70" r="22" fill="#F1EFE8" stroke="#5F5E5A" stroke-width="1.5"/>
<text x="70" y="248" text-anchor="middle" font-size="16">The</text>
<line x1="70" y1="178" x2="70" y2="92" stroke="#5F5E5A" stroke-width="1" stroke-dasharray="3 3"/>
<circle cx="200" cy="200" r="22" fill="#F1EFE8" stroke="#5F5E5A" stroke-width="1.5"/>
<circle cx="200" cy="70" r="22" fill="#F1EFE8" stroke="#5F5E5A" stroke-width="1.5"/>
<text x="200" y="248" text-anchor="middle" font-size="16">dog</text>
<line x1="200" y1="178" x2="200" y2="92" stroke="#5F5E5A" stroke-width="1" stroke-dasharray="3 3"/>
<circle cx="330" cy="200" r="22" fill="#F1EFE8" stroke="#5F5E5A" stroke-width="1.5"/>
<circle cx="330" cy="70" r="22" fill="#F1EFE8" stroke="#5F5E5A" stroke-width="1.5"/>
<text x="330" y="248" text-anchor="middle" font-size="16">told</text>
<line x1="330" y1="178" x2="330" y2="92" stroke="#5F5E5A" stroke-width="1" stroke-dasharray="3 3"/>
<circle cx="460" cy="200" r="22" fill="#F1EFE8" stroke="#5F5E5A" stroke-width="1.5"/>
<circle cx="460" cy="70" r="22" fill="#F1EFE8" stroke="#D85A30" stroke-width="2.5"/>
<text x="460" y="248" text-anchor="middle" font-size="16">them</text>
<circle cx="590" cy="200" r="22" fill="#F1EFE8" stroke="#5F5E5A" stroke-width="1.5"/>
<circle cx="590" cy="70" r="22" fill="#F1EFE8" stroke="#5F5E5A" stroke-width="1.5"/>
<text x="590" y="248" text-anchor="middle" font-size="16">barking</text>
<line x1="590" y1="178" x2="590" y2="92" stroke="#5F5E5A" stroke-width="1" stroke-dasharray="3 3"/>
<line x1="70" y1="178" x2="460" y2="92" stroke="#D85A30" stroke-width="1.6" marker-end="url(#m)"/>
<line x1="200" y1="178" x2="460" y2="92" stroke="#D85A30" stroke-width="1.6" marker-end="url(#m)"/>
<line x1="330" y1="178" x2="460" y2="92" stroke="#D85A30" stroke-width="1.6" marker-end="url(#m)"/>
<line x1="460" y1="178" x2="460" y2="92" stroke="#D85A30" stroke-width="2.2" marker-end="url(#m)"/>
<line x1="590" y1="178" x2="460" y2="92" stroke="#D85A30" stroke-width="1.6" marker-end="url(#m)"/>
<text x="460" y="38" text-anchor="middle" font-size="13" fill="#D85A30">"them"의 새 표현</text>
</svg>